<svg width="18" height="18" viewBox="0 0 18 18" fill="none" xmlns="http://www.w3.org/2000/svg">
<path d="M8.99992 7.33333C9.91659 7.33333 10.6666 6.58333 10.6666 5.66667V2.33333C10.6666 1.41667 9.91659 0.666666 8.99992 0.666666C8.08325 0.666666 7.33325 1.41667 7.33325 2.33333V5.66667C7.33325 6.58333 8.08325 7.33333 8.99992 7.33333Z" fill="#F70D0D" fill-opacity="0.8"/>
<path d="M14.9166 3.08333C14.6666 2.83333 14.4166 2.75 14 2.75C13.3333 2.75 12.75 3.33333 12.75 4C12.75 4.33333 12.9166 4.66667 13.0833 4.91667C14.1666 6 14.75 7.41667 14.75 9C14.75 12.25 12.1666 14.8333 8.91663 14.8333C5.66663 14.8333 3.08329 12.25 3.08329 9C3.08329 7.41667 3.74996 5.91667 4.83329 4.91667C5.08329 4.66667 5.24996 4.33333 5.24996 4C5.24996 3.33333 4.66663 2.75 3.99996 2.75C3.66663 2.75 3.33329 2.91667 3.08329 3.08333C1.58329 4.58333 0.666626 6.66667 0.666626 9C0.666626 13.5833 4.41663 17.3333 8.99996 17.3333C13.5833 17.3333 17.3333 13.5833 17.3333 9C17.3333 6.66667 16.4166 4.58333 14.9166 3.08333Z" fill="#F70D0D" fill-opacity="0.8"/>
</svg>
