<svg width="171" height="48" viewBox="0 0 171 48" fill="none" xmlns="http://www.w3.org/2000/svg">
<g filter="url(#filter0_d)">
<path d="M12.184 39.176C10.424 39.176 9.20803 38.824 8.53603 38.12C7.86403 37.448 7.51203 36.568 7.48003 35.48C7.48003 34.552 7.65603 33.448 8.00803 32.168C8.39203 30.856 8.77603 29.608 9.16003 28.424C10.184 25.384 11.256 22.424 12.376 19.544C13.528 16.664 14.648 13.944 15.736 11.384C16.856 8.792 17.848 6.44 18.712 4.328C16.536 4.36 14.648 4.424 13.048 4.52C11.48 4.616 10.04 4.744 8.72803 4.904C7.41603 5.032 6.05603 5.224 4.64803 5.48C4.80803 4.136 5.43203 3.112 6.52003 2.408C7.64003 1.672 9.12803 1.16 10.984 0.871999C12.84 0.583999 14.968 0.439999 17.368 0.439999C19.256 0.439999 20.968 0.503999 22.504 0.631999C24.072 0.727998 25.576 0.855998 27.016 1.016C29.032 1.208 30.632 1.336 31.816 1.4C33.032 1.464 33.896 1.496 34.408 1.496C33.448 2.392 32.232 3.048 30.76 3.464C29.32 3.848 27.8 4.088 26.2 4.184C24.6 4.28 23.08 4.328 21.64 4.328C20.104 8.104 18.696 12.024 17.416 16.088C16.136 20.152 14.952 24.168 13.864 28.136C13.448 29.672 13.096 30.984 12.808 32.072C12.552 33.128 12.36 34.104 12.232 35C12.104 35.864 12.04 36.792 12.04 37.784C12.04 37.944 12.04 38.12 12.04 38.312C12.072 38.536 12.12 38.824 12.184 39.176ZM24.793 36.536C23.353 36.536 22.361 36.056 21.817 35.096C21.305 34.168 21.049 33.144 21.049 32.024C21.049 31 21.209 29.96 21.529 28.904C21.849 27.816 22.281 26.808 22.825 25.88C23.401 24.952 24.025 24.216 24.697 23.672C25.401 23.096 26.105 22.808 26.809 22.808C27.033 22.808 27.289 22.856 27.577 22.952C27.897 23.016 28.121 23.128 28.249 23.288C27.737 23.928 27.209 24.76 26.665 25.784C26.153 26.776 25.721 27.816 25.369 28.904C25.049 29.992 24.889 30.984 24.889 31.88C24.889 32.52 25.001 33.048 25.225 33.464C25.481 33.88 25.913 34.088 26.521 34.088C27.129 34.088 27.849 33.752 28.681 33.08C29.545 32.376 30.361 31.576 31.129 30.68C30.105 29.752 29.369 28.744 28.921 27.656C28.473 26.536 28.249 25.192 28.249 23.624C28.249 22.952 28.409 22.184 28.729 21.32C29.081 20.456 29.625 19.704 30.361 19.064C31.129 18.424 32.153 18.104 33.433 18.104C34.809 18.104 35.769 18.488 36.313 19.256C36.889 20.024 37.177 20.936 37.177 21.992C37.177 23.176 36.857 24.504 36.217 25.976C35.609 27.448 34.873 28.84 34.009 30.152C34.393 30.344 34.841 30.44 35.353 30.44C35.833 30.44 36.409 30.328 37.081 30.104C37.753 29.88 38.409 29.512 39.049 29C39.689 28.456 40.201 27.736 40.585 26.84L41.449 27.464C40.745 29.096 39.801 30.296 38.617 31.064C37.465 31.8 36.329 32.168 35.209 32.168C34.793 32.168 34.377 32.136 33.961 32.072C33.545 31.976 33.161 31.864 32.809 31.736C31.721 33.016 30.473 34.136 29.065 35.096C27.657 36.056 26.233 36.536 24.793 36.536ZM32.377 29.144C33.145 28.024 33.801 26.824 34.345 25.544C34.889 24.264 35.161 23.08 35.161 21.992C35.161 20.584 34.713 19.88 33.817 19.88C33.209 19.88 32.585 20.312 31.945 21.176C31.305 22.04 30.985 23.128 30.985 24.44C30.985 25.112 31.097 25.928 31.321 26.888C31.577 27.848 31.929 28.6 32.377 29.144ZM42.7964 36.44C42.1884 36.44 41.5644 36.28 40.9244 35.96C40.3164 35.672 39.8044 35.208 39.3884 34.568C38.9404 33.928 38.7164 33.112 38.7164 32.12C38.7164 31.064 38.9724 29.88 39.4844 28.568C39.9964 27.256 40.6844 25.944 41.5484 24.632C42.4444 23.32 43.4684 22.12 44.6204 21.032C45.8044 19.944 47.0524 19.064 48.3644 18.392C49.6764 17.72 51.0044 17.384 52.3484 17.384C53.0844 17.384 53.6604 17.512 54.0764 17.768C54.4924 17.992 54.7004 18.376 54.7004 18.92C54.7004 19.08 54.6684 19.272 54.6044 19.496C54.5404 19.688 54.3804 19.864 54.1244 20.024C53.9964 19.832 53.7724 19.704 53.4524 19.64C53.1324 19.544 52.7964 19.496 52.4444 19.496C51.3884 19.496 50.3804 19.8 49.4204 20.408C48.4604 20.984 47.5804 21.736 46.7804 22.664C45.9804 23.592 45.2764 24.6 44.6684 25.688C44.0924 26.776 43.6444 27.832 43.3244 28.856C43.0044 29.848 42.8444 30.712 42.8444 31.448C42.8444 32.792 43.3564 33.464 44.3804 33.464C45.2444 33.464 46.2684 32.968 47.4524 31.976C48.6684 30.952 49.9004 29.496 51.1484 27.608C52.4284 25.688 53.5804 23.4 54.6044 20.744C55.3084 18.92 56.0444 17.064 56.8124 15.176C57.5804 13.256 58.3484 11.416 59.1164 9.656C59.8844 7.896 60.6364 6.328 61.3724 4.952C62.1404 3.576 62.8604 2.488 63.5324 1.688C64.2364 0.855999 64.8764 0.439999 65.4524 0.439999C65.8044 0.439999 66.1084 0.583999 66.3644 0.871999C66.6524 1.128 66.7964 1.464 66.7964 1.88C66.7964 2.424 66.5244 3.304 65.9804 4.52C65.4684 5.704 64.7964 7.128 63.9644 8.792C63.1644 10.456 62.2844 12.264 61.3244 14.216C60.3964 16.136 59.5164 18.12 58.6844 20.168C57.8844 22.184 57.2124 24.184 56.6684 26.168C56.1564 28.12 55.9004 29.96 55.9004 31.688C55.9004 32.456 55.9644 32.984 56.0924 33.272C56.2524 33.528 56.5084 33.656 56.8604 33.656C57.8844 33.656 59.1004 33.048 60.5084 31.832C61.9484 30.584 63.2124 28.824 64.3004 26.552L65.2124 27.32C64.5084 29.08 63.6124 30.632 62.5244 31.976C61.4364 33.32 60.2684 34.36 59.0204 35.096C57.7724 35.864 56.5404 36.248 55.3244 36.248C54.0124 36.248 53.1004 35.832 52.5884 35C52.0764 34.168 51.8204 33.192 51.8204 32.072C51.8204 31.56 51.8524 31.048 51.9164 30.536C52.0124 29.992 52.1084 29.464 52.2044 28.952C50.7004 31.128 49.1004 32.92 47.4044 34.328C45.7404 35.736 44.2044 36.44 42.7964 36.44ZM66.2305 36.536C64.7905 36.536 63.7985 36.056 63.2545 35.096C62.7425 34.168 62.4865 33.144 62.4865 32.024C62.4865 31 62.6465 29.96 62.9665 28.904C63.2865 27.816 63.7185 26.808 64.2625 25.88C64.8385 24.952 65.4625 24.216 66.1345 23.672C66.8385 23.096 67.5425 22.808 68.2465 22.808C68.4705 22.808 68.7265 22.856 69.0145 22.952C69.3345 23.016 69.5585 23.128 69.6865 23.288C69.1745 23.928 68.6465 24.76 68.1025 25.784C67.5905 26.776 67.1585 27.816 66.8065 28.904C66.4865 29.992 66.3265 30.984 66.3265 31.88C66.3265 32.52 66.4385 33.048 66.6625 33.464C66.9185 33.88 67.3505 34.088 67.9585 34.088C68.5665 34.088 69.2865 33.752 70.1185 33.08C70.9825 32.376 71.7985 31.576 72.5665 30.68C71.5425 29.752 70.8065 28.744 70.3585 27.656C69.9105 26.536 69.6865 25.192 69.6865 23.624C69.6865 22.952 69.8465 22.184 70.1665 21.32C70.5185 20.456 71.0625 19.704 71.7985 19.064C72.5665 18.424 73.5905 18.104 74.8705 18.104C76.2465 18.104 77.2065 18.488 77.7505 19.256C78.3265 20.024 78.6145 20.936 78.6145 21.992C78.6145 23.176 78.2945 24.504 77.6545 25.976C77.0465 27.448 76.3105 28.84 75.4465 30.152C75.8305 30.344 76.2785 30.44 76.7905 30.44C77.2705 30.44 77.8465 30.328 78.5185 30.104C79.1905 29.88 79.8465 29.512 80.4865 29C81.1265 28.456 81.6385 27.736 82.0225 26.84L82.8865 27.464C82.1825 29.096 81.2385 30.296 80.0545 31.064C78.9025 31.8 77.7665 32.168 76.6465 32.168C76.2305 32.168 75.8145 32.136 75.3985 32.072C74.9825 31.976 74.5985 31.864 74.2465 31.736C73.1585 33.016 71.9105 34.136 70.5025 35.096C69.0945 36.056 67.6705 36.536 66.2305 36.536ZM73.8145 29.144C74.5825 28.024 75.2385 26.824 75.7825 25.544C76.3265 24.264 76.5985 23.08 76.5985 21.992C76.5985 20.584 76.1505 19.88 75.2545 19.88C74.6465 19.88 74.0225 20.312 73.3825 21.176C72.7425 22.04 72.4225 23.128 72.4225 24.44C72.4225 25.112 72.5345 25.928 72.7585 26.888C73.0145 27.848 73.3665 28.6 73.8145 29.144ZM114.367 39.176C113.183 39.176 111.855 38.936 110.383 38.456C108.911 37.976 107.391 37.4 105.823 36.728C104.287 36.056 102.783 35.416 101.311 34.808C100.511 35.672 99.6467 36.344 98.7187 36.824C97.7907 37.304 96.7987 37.544 95.7427 37.544C94.6227 37.544 93.6627 37.288 92.8627 36.776C92.0307 36.296 91.4067 35.704 90.9907 35C90.5427 34.296 90.3187 33.656 90.3187 33.08C90.3187 32.44 90.6067 31.88 91.1827 31.4C91.7587 30.92 92.7827 30.68 94.2547 30.68C95.1187 30.68 96.0627 30.776 97.0867 30.968C98.1427 31.128 99.2147 31.352 100.303 31.64C101.039 30.36 101.711 28.856 102.319 27.128C102.959 25.4 103.583 23.592 104.191 21.704C104.799 19.784 105.407 17.912 106.015 16.088C104.415 15.544 103.183 14.792 102.319 13.832C101.455 12.84 101.023 11.848 101.023 10.856C101.023 10.216 101.183 9.592 101.503 8.984C101.823 8.344 102.287 7.816 102.895 7.4C103.503 6.952 104.223 6.728 105.055 6.728C104.639 7.24 104.367 7.816 104.239 8.456C104.143 9.096 104.095 9.608 104.095 9.992C104.095 11.048 104.335 11.944 104.815 12.68C105.295 13.416 105.887 13.992 106.591 14.408C107.199 12.584 107.839 10.84 108.511 9.176C109.215 7.48 109.983 5.992 110.815 4.712C111.679 3.4 112.623 2.36 113.647 1.592C114.703 0.823998 115.887 0.439999 117.199 0.439999C117.935 0.439999 118.703 0.599998 119.503 0.919998C120.335 1.208 121.039 1.72 121.615 2.456C122.223 3.192 122.527 4.248 122.527 5.624C122.527 6.712 122.287 7.88 121.807 9.128C121.359 10.376 120.639 11.576 119.647 12.728C118.655 13.848 117.375 14.792 115.807 15.56C114.271 16.296 112.399 16.696 110.191 16.76H109.759C108.863 19.544 107.871 22.344 106.783 25.16C105.695 27.976 104.495 30.392 103.183 32.408C104.431 32.76 105.807 33.16 107.311 33.608C108.847 34.056 110.367 34.44 111.871 34.76C113.407 35.048 114.751 35.192 115.903 35.192C116.671 35.192 117.375 35.112 118.015 34.952C118.687 34.76 119.391 34.488 120.127 34.136C119.487 35.928 118.687 37.208 117.727 37.976C116.799 38.776 115.679 39.176 114.367 39.176ZM110.287 15.176C111.695 15.08 112.943 14.632 114.031 13.832C115.119 13.032 116.047 12.072 116.815 10.952C117.583 9.832 118.159 8.696 118.543 7.544C118.959 6.36 119.167 5.336 119.167 4.472C119.167 3.64 119.007 3.08 118.687 2.792C118.367 2.472 117.999 2.312 117.583 2.312C116.655 2.312 115.775 2.904 114.943 4.088C114.111 5.272 113.311 6.84 112.543 8.792C111.807 10.712 111.055 12.84 110.287 15.176ZM95.2627 35.768C96.0947 35.768 96.7667 35.576 97.2787 35.192C97.7907 34.84 98.3027 34.392 98.8147 33.848C97.8227 33.496 96.8947 33.208 96.0307 32.984C95.1667 32.728 94.4147 32.6 93.7747 32.6C93.1667 32.6 92.7347 32.712 92.4787 32.936C92.1907 33.16 92.0467 33.432 92.0467 33.752C92.0467 34.264 92.3667 34.728 93.0067 35.144C93.6467 35.56 94.3987 35.768 95.2627 35.768ZM131.582 14.792C130.974 14.792 130.414 14.648 129.902 14.36C129.422 14.04 129.182 13.56 129.182 12.92C129.182 12.152 129.598 11.496 130.43 10.952C131.262 10.408 132.126 10.136 133.022 10.136C133.598 10.136 134.078 10.264 134.462 10.52C134.878 10.776 135.086 11.24 135.086 11.912C135.086 12.584 134.718 13.24 133.982 13.88C133.246 14.488 132.446 14.792 131.582 14.792ZM125.918 36.44C124.51 36.44 123.454 36.024 122.75 35.192C122.046 34.36 121.694 33.352 121.694 32.168C121.694 31.432 121.822 30.504 122.078 29.384C122.334 28.264 122.686 27.096 123.134 25.88C123.614 24.632 124.158 23.464 124.766 22.376C125.374 21.288 126.03 20.408 126.734 19.736C127.438 19.032 128.142 18.68 128.846 18.68C129.23 18.68 129.566 18.808 129.854 19.064C130.142 19.288 130.286 19.624 130.286 20.072C130.286 20.488 130.03 21.112 129.518 21.944C129.038 22.776 128.462 23.736 127.79 24.824C127.15 25.912 126.574 27.048 126.062 28.232C125.582 29.384 125.342 30.488 125.342 31.544C125.342 32.568 125.518 33.256 125.87 33.608C126.254 33.928 126.798 34.088 127.502 34.088C128.59 34.088 129.774 33.544 131.054 32.456C132.334 31.368 133.662 29.464 135.038 26.744L135.758 27.512C134.638 30.328 133.214 32.52 131.486 34.088C129.758 35.656 127.902 36.44 125.918 36.44ZM139.413 37.448C137.813 37.448 136.517 37.112 135.525 36.44C134.565 35.8 133.877 34.984 133.461 33.992C133.045 32.968 132.837 31.928 132.837 30.872C132.837 29.944 132.965 29.224 133.221 28.712C133.477 28.2 133.797 27.832 134.181 27.608C134.565 27.352 134.917 27.16 135.237 27.032C135.589 26.904 135.845 26.76 136.005 26.6C136.805 25.768 137.621 24.808 138.453 23.72C139.317 22.6 140.053 21.368 140.661 20.024V19.544C140.661 18.264 140.869 17.368 141.285 16.856C141.733 16.312 142.245 16.04 142.821 16.04C143.205 16.04 143.477 16.136 143.637 16.328C143.829 16.52 143.941 16.744 143.973 17C143.973 17.192 143.925 17.416 143.829 17.672C143.765 17.928 143.733 18.28 143.733 18.728C143.733 19.688 143.957 20.792 144.405 22.04C144.885 23.256 145.349 24.552 145.797 25.928C146.277 27.304 146.517 28.712 146.517 30.152C146.517 30.536 146.501 30.888 146.469 31.208C146.437 31.528 146.389 31.832 146.325 32.12C147.317 31.864 148.293 31.32 149.253 30.488C150.213 29.624 151.125 28.36 151.989 26.696L152.565 27.128C151.957 28.952 151.077 30.424 149.925 31.544C148.773 32.632 147.429 33.304 145.893 33.56C145.381 34.872 144.533 35.848 143.349 36.488C142.197 37.128 140.885 37.448 139.413 37.448ZM142.533 32.024C142.597 31.8 142.629 31.544 142.629 31.256C142.661 30.936 142.677 30.696 142.677 30.536C142.645 29.096 142.453 27.672 142.101 26.264C141.749 24.856 141.397 23.416 141.045 21.944C140.469 22.936 139.797 24.008 139.029 25.16C138.261 26.312 137.541 27.24 136.869 27.944C137.381 28.808 138.133 29.624 139.125 30.392C140.117 31.16 141.253 31.704 142.533 32.024ZM139.077 35.336C139.717 35.336 140.309 35.176 140.853 34.856C141.397 34.536 141.829 34.072 142.149 33.464C140.837 33.176 139.653 32.664 138.597 31.928C137.541 31.192 136.725 30.44 136.149 29.672C135.701 29.768 135.477 30.2 135.477 30.968C135.477 32.024 135.781 33.016 136.389 33.944C136.997 34.872 137.893 35.336 139.077 35.336ZM154.993 37.208C153.585 37.208 152.449 36.792 151.585 35.96C150.721 35.128 150.289 33.864 150.289 32.168C150.289 30.856 150.529 29.224 151.009 27.272C151.521 25.32 152.161 23.304 152.929 21.224C152.705 21.16 152.433 21.112 152.113 21.08C151.825 21.016 151.537 20.92 151.249 20.792V19.304C151.761 19.368 152.177 19.416 152.497 19.448C152.849 19.48 153.201 19.512 153.553 19.544C154.225 17.848 154.945 16.216 155.713 14.648C156.513 13.048 157.297 11.624 158.065 10.376C158.865 9.128 159.617 8.152 160.321 7.448C161.025 6.712 161.649 6.344 162.193 6.344C162.513 6.344 162.817 6.472 163.105 6.728C163.393 6.952 163.537 7.288 163.537 7.736C163.537 8.376 163.201 9.288 162.529 10.472C161.889 11.656 161.089 13.048 160.129 14.648C159.169 16.216 158.241 17.896 157.345 19.688H158.833C160.241 19.688 161.505 19.672 162.625 19.64C163.777 19.576 164.945 19.48 166.129 19.352V20.936C164.369 21.096 162.753 21.224 161.281 21.32C159.809 21.416 158.401 21.48 157.057 21.512H156.481C155.809 23.08 155.217 24.696 154.705 26.36C154.225 27.992 153.985 29.592 153.985 31.16C153.985 32.472 154.193 33.4 154.609 33.944C155.025 34.488 155.681 34.76 156.577 34.76C158.177 34.76 159.809 34.04 161.473 32.6C163.169 31.128 164.641 29.144 165.889 26.648L166.561 27.128C165.729 29.016 164.689 30.728 163.441 32.264C162.225 33.8 160.897 35 159.457 35.864C158.017 36.76 156.529 37.208 154.993 37.208Z" fill="#DBDBDB"/>
</g>
<defs>
<filter id="filter0_d" x="0.648041" y="0.440002" width="169.913" height="46.736" filterUnits="userSpaceOnUse" color-interpolation-filters="sRGB">
<feFlood flood-opacity="0" result="BackgroundImageFix"/>
<feColorMatrix in="SourceAlpha" type="matrix" values="0 0 0 0 0 0 0 0 0 0 0 0 0 0 0 0 0 0 127 0"/>
<feOffset dy="4"/>
<feGaussianBlur stdDeviation="2"/>
<feColorMatrix type="matrix" values="0 0 0 0 0 0 0 0 0 0 0 0 0 0 0 0 0 0 0.25 0"/>
<feBlend mode="normal" in2="BackgroundImageFix" result="effect1_dropShadow"/>
<feBlend mode="normal" in="SourceGraphic" in2="effect1_dropShadow" result="shape"/>
</filter>
</defs>
</svg>
