<svg width="60" height="34" viewBox="0 0 60 34" fill="none" xmlns="http://www.w3.org/2000/svg">
<path d="M20.184 11.1987C20.68 11.2947 21.048 11.4627 21.288 11.7027C21.544 11.9427 21.672 12.2227 21.672 12.5427C21.672 13.0707 21.52 13.4547 21.216 13.6947C20.928 13.9347 20.464 14.0307 19.824 13.9827C18.384 13.8707 17.256 13.7987 16.44 13.7667C15.64 13.7187 14.584 13.6867 13.272 13.6707C12.68 16.6147 12.136 19.5747 11.64 22.5507C11.464 23.6387 11.28 24.9027 11.088 26.3427C10.896 27.7667 10.768 28.9187 10.704 29.7987C10.672 30.2627 10.48 30.6227 10.128 30.8787C9.77603 31.1187 9.35203 31.2387 8.85603 31.2387C8.32803 31.2387 7.92003 31.1107 7.63203 30.8547C7.34403 30.5987 7.20003 30.2627 7.20003 29.8467C7.20003 29.4627 7.25603 28.8307 7.36803 27.9507C7.49603 27.0547 7.64003 26.1187 7.80003 25.1427C7.97603 24.1667 8.11203 23.3187 8.20803 22.5987C8.38403 21.3827 8.58403 20.1747 8.80803 18.9747C9.03203 17.7747 9.25603 16.6387 9.48003 15.5667C9.52803 15.3267 9.58403 15.0547 9.64803 14.7507C9.71203 14.4307 9.78403 14.0787 9.86403 13.6947C8.29603 13.7427 7.06403 13.8707 6.16803 14.0787C5.27203 14.2867 4.63203 14.5827 4.24803 14.9667C3.88003 15.3347 3.69603 15.8147 3.69603 16.4067C3.69603 16.9507 3.85603 17.4707 4.17603 17.9667C4.24003 18.0787 4.27203 18.1987 4.27203 18.3267C4.27203 18.6307 4.08803 18.9187 3.72003 19.1907C3.36803 19.4467 3.00003 19.5747 2.61603 19.5747C2.34403 19.5747 2.12003 19.4947 1.94403 19.3347C1.62403 19.0627 1.36003 18.6787 1.15203 18.1827C0.944031 17.6707 0.840031 17.0947 0.840031 16.4547C0.840031 15.0947 1.28003 14.0067 2.16003 13.1907C3.05603 12.3587 4.40803 11.7507 6.21603 11.3667C8.04003 10.9827 10.376 10.7907 13.224 10.7907C14.984 10.7907 16.384 10.8227 17.424 10.8867C18.48 10.9507 19.4 11.0547 20.184 11.1987ZM27.9702 23.7507C28.1782 23.7507 28.3382 23.8547 28.4502 24.0627C28.5622 24.2707 28.6182 24.5347 28.6182 24.8547C28.6182 25.6227 28.3862 26.0787 27.9222 26.2227C26.9622 26.5587 25.9062 26.7507 24.7542 26.7987C24.4502 28.1427 23.8502 29.2227 22.9542 30.0387C22.0582 30.8387 21.0422 31.2387 19.9062 31.2387C18.9462 31.2387 18.1222 31.0067 17.4342 30.5427C16.7622 30.0787 16.2502 29.4627 15.8982 28.6947C15.5462 27.9267 15.3702 27.0947 15.3702 26.1987C15.3702 24.9827 15.6022 23.9027 16.0662 22.9587C16.5302 21.9987 17.1702 21.2547 17.9862 20.7267C18.8022 20.1827 19.7062 19.9107 20.6982 19.9107C21.9142 19.9107 22.8902 20.3347 23.6262 21.1827C24.3782 22.0147 24.8182 23.0467 24.9462 24.2787C25.6982 24.2307 26.5942 24.0707 27.6342 23.7987C27.7622 23.7667 27.8742 23.7507 27.9702 23.7507ZM20.0982 28.6947C20.6102 28.6947 21.0502 28.4867 21.4182 28.0707C21.8022 27.6547 22.0582 27.0547 22.1862 26.2707C21.6902 25.9347 21.3062 25.4947 21.0342 24.9507C20.7782 24.4067 20.6502 23.8307 20.6502 23.2227C20.6502 22.9667 20.6742 22.7107 20.7222 22.4547H20.6022C19.9622 22.4547 19.4262 22.7667 18.9942 23.3907C18.5782 23.9987 18.3702 24.8627 18.3702 25.9827C18.3702 26.8627 18.5382 27.5347 18.8742 27.9987C19.2262 28.4627 19.6342 28.6947 20.0982 28.6947ZM32.7983 31.2387C31.8703 31.2387 30.8223 31.1587 29.6543 30.9987C29.0143 30.9187 28.5743 30.7507 28.3343 30.4947C28.0943 30.2387 27.9903 29.8227 28.0223 29.2467C28.1343 27.6627 28.3983 25.7107 28.8143 23.3907C29.2303 21.0547 29.7343 18.8067 30.3263 16.6467C30.4383 16.2467 30.6623 15.9667 30.9983 15.8067C31.3343 15.6467 31.7743 15.5667 32.3183 15.5667C33.2943 15.5667 33.7823 15.8387 33.7823 16.3827C33.7823 16.6067 33.7343 16.8627 33.6383 17.1507C33.2223 18.4307 32.8063 20.1507 32.3903 22.3107C31.9743 24.4547 31.6783 26.5027 31.5023 28.4547C31.9823 28.5027 32.5263 28.5267 33.1343 28.5267C35.9343 28.5267 38.0223 27.6787 39.3983 25.9827C40.7903 24.2867 41.4863 22.0227 41.4863 19.1907C41.4863 17.2867 40.9423 15.8147 39.8543 14.7747C38.7663 13.7347 37.2303 13.2147 35.2463 13.2147C33.9663 13.2147 32.6943 13.4147 31.4303 13.8147C30.1823 14.2147 29.0543 14.7427 28.0463 15.3987C27.8383 15.5427 27.6143 15.6147 27.3743 15.6147C27.1023 15.6147 26.8863 15.5027 26.7263 15.2787C26.5663 15.0387 26.4863 14.7507 26.4863 14.4147C26.4863 14.0307 26.5503 13.7187 26.6783 13.4787C26.8063 13.2227 27.0223 12.9907 27.3263 12.7827C28.4303 12.0307 29.7263 11.4627 31.2143 11.0787C32.7023 10.6787 34.1343 10.4787 35.5103 10.4787C37.4623 10.4787 39.1503 10.8227 40.5743 11.5107C41.9983 12.1827 43.0943 13.1747 43.8623 14.4867C44.6303 15.7987 45.0143 17.3827 45.0143 19.2387C45.0143 21.6547 44.5343 23.7667 43.5743 25.5747C42.6143 27.3667 41.2143 28.7587 39.3743 29.7507C37.5343 30.7427 35.3423 31.2387 32.7983 31.2387ZM50.6768 31.2387C49.7328 31.2387 48.9248 31.0067 48.2528 30.5427C47.5968 30.0627 47.1008 29.4387 46.7648 28.6707C46.4288 27.9027 46.2608 27.0787 46.2608 26.1987C46.2608 24.9827 46.4848 23.9027 46.9328 22.9587C47.3968 21.9987 48.0208 21.2547 48.8048 20.7267C49.5888 20.1827 50.4688 19.9107 51.4448 19.9107C52.3888 19.9107 53.1968 20.1507 53.8688 20.6307C54.5408 21.0947 55.0448 21.7107 55.3808 22.4787C55.7168 23.2467 55.8848 24.0707 55.8848 24.9507C55.8848 26.1667 55.6528 27.2547 55.1888 28.2147C54.7248 29.1587 54.0928 29.9027 53.2928 30.4467C52.5088 30.9747 51.6368 31.2387 50.6768 31.2387ZM50.9408 28.6467C51.4848 28.6467 51.9408 28.3507 52.3088 27.7587C52.6928 27.1667 52.8848 26.3027 52.8848 25.1667C52.8848 24.2867 52.7248 23.6227 52.4048 23.1747C52.0848 22.7267 51.7008 22.5027 51.2528 22.5027C50.6768 22.5027 50.1968 22.7987 49.8128 23.3907C49.4448 23.9667 49.2608 24.8307 49.2608 25.9827C49.2608 26.8947 49.4208 27.5667 49.7408 27.9987C50.0608 28.4307 50.4608 28.6467 50.9408 28.6467Z" fill="black"/>
</svg>
